# xmcd
#
# Track frame offsets:
#	150
#	8302
#	19702
#	31007
#	42395
#	54975
#	65007
#	74315
#	88665
#	98847
#	111045
#	129547
#	147030
#	158357
#	175047
#	187040
#	206987
#	219207
#	229475
#	242122
#	253557
#	269860
#	281377
#	294735
#	307152
#	320065
#
# Disc length: 4437 seconds
#
# Revision: 5
# Processed by: cddbd v1.5.1PL2 Copyright (c) Steve Scherf et al.
# Submitted via: audiograbber 1.83.01
#
DISCID=7b11531a
DTITLE=Various Artist - Rhythm and Blues (with a little soul) At Abbey Road
DYEAR=1998
DGENRE=R&B
TTITLE0=Ottilie Patterson - Baby Please Don't Go
TTITLE1=Graham Bond Quartet - Wade In The Water (unissued)
TTITLE2=Pat Wayne With The Beachcombers - Bye Bye Johnny
TTITLE3=Duffy Power with The Graham Bond Quartet - I Saw Her Standing There
TTITLE4=Pirates - My Babe
TTITLE5=Beat Merchants - Pretty Face
TTITLE6=Duffy Power with The Paramounts - Tired,Broke And Busted
TTITLE7=Boston Crabs - Down In Mexico
TTITLE8=Paramounts - Little Bitty Pretty One
TTITLE9=Herbie Goins and The Night-Timers - Turn On Your Lovelight
TTITLE10=Boston Dexters - I Believe To My Soul
TTITLE11=Shades Of Blue - Voodoo Blues
TTITLE12=Sons Of Fred - Baby What You Want Me To Do
TTITLE13=Manfred Mann - Groovin'
TTITLE14=Rod Stewart - I Just Got Some
TTITLE15=Long John Baldry and The Hoochie Coochie Men - Hoochie Coochie Man
TTITLE16=Cliff Bennett and The Rebel Rousers - Got To Get You Into My Life
TTITLE17=Jynx - How
TTITLE18=Son Of Fred - I'll Be There
TTITLE19=Toggery Five - Bye Bye Bird
TTITLE20=Manfred Mann - I Put A Spell On You
TTITLE21=Phil Ryan and The Crescent - Gypsy Woman
TTITLE22=Cliff Bennett and The Rebel Rousers - 634-5789
TTITLE23=Herbie Goins and The Night-Timers - No 1 In Your Heart
TTITLE24=Rod Stewart - Shake
TTITLE25=Action - Land Of 1000 Dances
EXTD=EMI 7243 4 93453 2 4 (P) 1998
EXTT0=
EXTT1=
EXTT2=
EXTT3=
EXTT4=
EXTT5=
EXTT6=
EXTT7=
EXTT8=
EXTT9=
EXTT10=
EXTT11=
EXTT12=
EXTT13=
EXTT14=
EXTT15=
EXTT16=
EXTT17=
EXTT18=
EXTT19=
EXTT20=
EXTT21=
EXTT22=
EXTT23=
EXTT24=
EXTT25=
PLAYORDER=
